<svg width="69" height="69" viewBox="0 0 69 69" fill="none" xmlns="http://www.w3.org/2000/svg">
<path d="M34.5029 0C15.4786 0 0 15.4786 0 34.5029C0 53.5272 15.4786 69 34.5029 69C53.5272 69 69 53.5272 69 34.5029C69 15.4786 53.5272 0 34.5029 0ZM50.0862 27.8069L33.1254 46.1918C32.4279 46.9474 31.4455 47.3776 30.4167 47.3776H30.3528C29.3007 47.3543 28.3068 46.8951 27.6267 46.093L18.8324 35.8747C17.5072 34.3343 17.6816 32.0035 19.2219 30.6783C20.7622 29.353 23.0872 29.5274 24.4124 31.0677L30.5156 38.1531L44.6806 22.8024C46.0581 21.3086 48.389 21.2156 49.8828 22.5931C51.3824 23.9707 51.4696 26.3015 50.092 27.8011L50.0862 27.8069Z" fill="#BBEF4A"/>
</svg>
